# Blender 4.2.3 LTS
# www.blender.org
mtllib icosphere.mtl
o Icosphere
v 0.000000 -1.000000 0.000000
v 0.723607 -0.447220 0.525725
v -0.276388 -0.447220 0.850649
v -0.894426 -0.447216 0.000000
v -0.276388 -0.447220 -0.850649
v 0.723607 -0.447220 -0.525725
v 0.276388 0.447220 0.850649
v -0.723607 0.447220 0.525725
v -0.723607 0.447220 -0.525725
v 0.276388 0.447220 -0.850649
v 0.894426 0.447216 0.000000
v 0.000000 1.000000 0.000000
v -0.162456 -0.850654 0.499995
v 0.425323 -0.850654 0.309011
v 0.262869 -0.525738 0.809012
v 0.850648 -0.525736 0.000000
v 0.425323 -0.850654 -0.309011
v -0.525730 -0.850652 0.000000
v -0.688189 -0.525736 0.499997
v -0.162456 -0.850654 -0.499995
v -0.688189 -0.525736 -0.499997
v 0.262869 -0.525738 -0.809012
v 0.951058 0.000000 0.309013
v 0.951058 0.000000 -0.309013
v 0.000000 0.000000 1.000000
v 0.587786 0.000000 0.809017
v -0.951058 0.000000 0.309013
v -0.587786 0.000000 0.809017
v -0.587786 0.000000 -0.809017
v -0.951058 0.000000 -0.309013
v 0.587786 0.000000 -0.809017
v 0.000000 0.000000 -1.000000
v 0.688189 0.525736 0.499997
v -0.262869 0.525738 0.809012
v -0.850648 0.525736 0.000000
v -0.262869 0.525738 -0.809012
v 0.688189 0.525736 -0.499997
v 0.162456 0.850654 0.499995
v 0.525730 0.850652 0.000000
v -0.425323 0.850654 0.309011
v -0.425323 0.850654 -0.309011
v 0.162456 0.850654 -0.499995
vn 0.1024 -0.9435 0.3151
vn 0.7002 -0.6617 0.2680
vn -0.2680 -0.9435 0.1947
vn -0.2680 -0.9435 -0.1947
vn 0.1024 -0.9435 -0.3151
vn 0.9050 -0.3304 0.2680
vn 0.0247 -0.3304 0.9435
vn -0.8897 -0.3304 0.3151
vn -0.5746 -0.3304 -0.7488
vn 0.5346 -0.3304 -0.7779
vn 0.8026 -0.1256 0.5831
vn -0.3066 -0.1256 0.9435
vn -0.9921 -0.1256 -0.0000
vn -0.3066 -0.1256 -0.9435
vn 0.8026 -0.1256 -0.5831
vn 0.4089 0.6617 0.6284
vn -0.4713 0.6617 0.5831
vn -0.7002 0.6617 -0.2680
vn 0.0385 0.6617 -0.7488
vn 0.7240 0.6617 -0.1947
vn 0.2680 0.9435 -0.1947
vn 0.4911 0.7947 -0.3568
vn 0.4089 0.6617 -0.6284
vn -0.1024 0.9435 -0.3151
vn -0.1876 0.7947 -0.5773
vn -0.4713 0.6617 -0.5831
vn -0.3313 0.9435 -0.0000
vn -0.6071 0.7947 -0.0000
vn -0.7002 0.6617 0.2680
vn -0.1024 0.9435 0.3151
vn -0.1876 0.7947 0.5773
vn 0.0385 0.6617 0.7488
vn 0.2680 0.9435 0.1947
vn 0.4911 0.7947 0.3568
vn 0.7240 0.6617 0.1947
vn 0.8897 0.3304 -0.3151
vn 0.7947 0.1876 -0.5773
vn 0.5746 0.3304 -0.7488
vn -0.0247 0.3304 -0.9435
vn -0.3035 0.1876 -0.9342
vn -0.5346 0.3304 -0.7779
vn -0.9050 0.3304 -0.2680
vn -0.9822 0.1876 -0.0000
vn -0.9050 0.3304 0.2680
vn -0.5346 0.3304 0.7779
vn -0.3035 0.1876 0.9342
vn -0.0247 0.3304 0.9435
vn 0.5746 0.3304 0.7488
vn 0.7947 0.1876 0.5773
vn 0.8897 0.3304 0.3151
vn 0.3066 0.1256 -0.9435
vn 0.3035 -0.1876 -0.9342
vn 0.0247 -0.3304 -0.9435
vn -0.8026 0.1256 -0.5831
vn -0.7947 -0.1876 -0.5773
vn -0.8897 -0.3304 -0.3151
vn -0.8026 0.1256 0.5831
vn -0.7947 -0.1876 0.5773
vn -0.5746 -0.3304 0.7488
vn 0.3066 0.1256 0.9435
vn 0.3035 -0.1876 0.9342
vn 0.5346 -0.3304 0.7779
vn 0.9921 0.1256 -0.0000
vn 0.9822 -0.1876 -0.0000
vn 0.9050 -0.3304 -0.2680
vn 0.4713 -0.6617 -0.5831
vn 0.1876 -0.7947 -0.5773
vn -0.0385 -0.6617 -0.7488
vn -0.4089 -0.6617 -0.6284
vn -0.4911 -0.7947 -0.3568
vn -0.7240 -0.6617 -0.1947
vn -0.7240 -0.6617 0.1947
vn -0.4911 -0.7947 0.3568
vn -0.4089 -0.6617 0.6284
vn 0.7002 -0.6617 -0.2680
vn 0.6071 -0.7947 -0.0000
vn 0.3313 -0.9435 -0.0000
vn -0.0385 -0.6617 0.7488
vn 0.1876 -0.7947 0.5773
vn 0.4713 -0.6617 0.5831
vt 0.181819 0.000000
vt 0.227273 0.078731
vt 0.136365 0.078731
vt 0.272728 0.157461
vt 0.318182 0.078731
vt 0.363637 0.157461
vt 0.909091 0.000000
vt 0.954545 0.078731
vt 0.863636 0.078731
vt 0.727273 0.000000
vt 0.772727 0.078731
vt 0.681818 0.078731
vt 0.545455 0.000000
vt 0.590909 0.078731
vt 0.500000 0.078731
vt 0.318182 0.236191
vt 0.090910 0.157461
vt 0.181819 0.157461
vt 0.136365 0.236191
vt 0.818182 0.157461
vt 0.909091 0.157461
vt 0.863636 0.236191
vt 0.636364 0.157461
vt 0.727273 0.157461
vt 0.681818 0.236191
vt 0.454546 0.157461
vt 0.545455 0.157461
vt 0.500000 0.236191
vt 0.227273 0.236191
vt 0.045455 0.236191
vt 0.772727 0.236191
vt 0.590909 0.236191
vt 0.409092 0.236191
vt 0.181819 0.314921
vt 0.272728 0.314921
vt 0.227273 0.393651
vt 0.000000 0.314921
vt 0.090910 0.314921
vt 0.045455 0.393651
vt 0.727273 0.314921
vt 0.818182 0.314921
vt 0.772727 0.393651
vt 0.545455 0.314921
vt 0.636364 0.314921
vt 0.590909 0.393651
vt 0.363637 0.314921
vt 0.454546 0.314921
vt 0.409092 0.393651
vt 0.500000 0.393651
vt 0.454546 0.472382
vt 0.681818 0.393651
vt 0.636364 0.472382
vt 0.863636 0.393651
vt 0.818182 0.472382
vt 0.909091 0.314921
vt 0.136365 0.393651
vt 0.090910 0.472382
vt 0.318182 0.393651
vt 0.272728 0.472382
vt 0.954545 0.236191
vt 1.000000 0.157461
vt 0.409092 0.078731
vt 0.363637 0.000000
s 0
usemtl face1
f 1/1/1 14/2/1 13/3/1
usemtl face2
f 2/4/2 14/5/2 16/6/2
usemtl face3
f 1/7/3 13/8/3 18/9/3
usemtl face4
f 1/10/4 18/11/4 20/12/4
usemtl face5
f 1/13/5 20/14/5 17/15/5
usemtl face6
f 2/4/6 16/6/6 23/16/6
usemtl face7
f 3/17/7 15/18/7 25/19/7
usemtl face8
f 4/20/8 19/21/8 27/22/8
usemtl face9
f 5/23/9 21/24/9 29/25/9
usemtl face10
f 6/26/10 22/27/10 31/28/10
usemtl face11
f 2/4/11 23/16/11 26/29/11
usemtl face12
f 3/17/12 25/19/12 28/30/12
usemtl face13
f 4/20/13 27/22/13 30/31/13
usemtl face14
f 5/23/14 29/25/14 32/32/14
usemtl face15
f 6/26/15 31/28/15 24/33/15
usemtl face16
f 7/34/16 33/35/16 38/36/16
usemtl face17
f 8/37/17 34/38/17 40/39/17
usemtl face18
f 9/40/18 35/41/18 41/42/18
usemtl face19
f 10/43/19 36/44/19 42/45/19
usemtl face20
f 11/46/20 37/47/20 39/48/20
usemtl face21
f 39/48/21 42/49/21 12/50/21
usemtl face22
f 39/48/22 37/47/22 42/49/22
usemtl face23
f 37/47/23 10/43/23 42/49/23
usemtl face24
f 42/45/24 41/51/24 12/52/24
usemtl face25
f 42/45/25 36/44/25 41/51/25
usemtl face26
f 36/44/26 9/40/26 41/51/26
usemtl face27
f 41/42/27 40/53/27 12/54/27
usemtl face28
f 41/42/28 35/41/28 40/53/28
usemtl face29
f 35/41/29 8/55/29 40/53/29
usemtl face30
f 40/39/30 38/56/30 12/57/30
usemtl face31
f 40/39/31 34/38/31 38/56/31
usemtl face32
f 34/38/32 7/34/32 38/56/32
usemtl face33
f 38/36/33 39/58/33 12/59/33
usemtl face34
f 38/36/34 33/35/34 39/58/34
usemtl face35
f 33/35/35 11/46/35 39/58/35
usemtl face36
f 24/33/36 37/47/36 11/46/36
usemtl face37
f 24/33/37 31/28/37 37/47/37
usemtl face38
f 31/28/38 10/43/38 37/47/38
usemtl face39
f 32/32/39 36/44/39 10/43/39
usemtl face40
f 32/32/40 29/25/40 36/44/40
usemtl face39
f 29/25/41 9/40/41 36/44/41
usemtl face38
f 30/31/42 35/41/42 9/40/42
usemtl face37
f 30/31/43 27/22/43 35/41/43
usemtl face36
f 27/22/44 8/55/44 35/41/44
usemtl face35
f 28/30/45 34/38/45 8/37/45
usemtl face34
f 28/30/46 25/19/46 34/38/46
usemtl face33
f 25/19/47 7/34/47 34/38/47
usemtl face32
f 26/29/48 33/35/48 7/34/48
usemtl face31
f 26/29/49 23/16/49 33/35/49
usemtl face30
f 23/16/50 11/46/50 33/35/50
usemtl face29
f 31/28/51 32/32/51 10/43/51
usemtl face28
f 31/28/52 22/27/52 32/32/52
usemtl face27
f 22/27/53 5/23/53 32/32/53
usemtl face26
f 29/25/54 30/31/54 9/40/54
usemtl face25
f 29/25/55 21/24/55 30/31/55
usemtl face24
f 21/24/56 4/20/56 30/31/56
usemtl face23
f 27/22/57 28/60/57 8/55/57
usemtl face22
f 27/22/58 19/21/58 28/60/58
usemtl face21
f 19/21/59 3/61/59 28/60/59
usemtl face20
f 25/19/60 26/29/60 7/34/60
usemtl face19
f 25/19/61 15/18/61 26/29/61
usemtl face18
f 15/18/62 2/4/62 26/29/62
usemtl face17
f 23/16/63 24/33/63 11/46/63
usemtl face16
f 23/16/64 16/6/64 24/33/64
usemtl face15
f 16/6/65 6/26/65 24/33/65
usemtl face14
f 17/15/66 22/27/66 6/26/66
usemtl face13
f 17/15/67 20/14/67 22/27/67
usemtl face12
f 20/14/68 5/23/68 22/27/68
usemtl face11
f 20/12/69 21/24/69 5/23/69
usemtl face10
f 20/12/70 18/11/70 21/24/70
usemtl face9
f 18/11/71 4/20/71 21/24/71
usemtl face8
f 18/9/72 19/21/72 4/20/72
usemtl face7
f 18/9/73 13/8/73 19/21/73
usemtl face6
f 13/8/74 3/61/74 19/21/74
usemtl face5
f 16/6/75 17/62/75 6/26/75
usemtl face4
f 16/6/76 14/5/76 17/62/76
usemtl face3
f 14/5/77 1/63/77 17/62/77
usemtl face2
f 13/3/78 15/18/78 3/17/78
usemtl face1
f 13/3/79 14/2/79 15/18/79
usemtl face20
f 14/2/80 2/4/80 15/18/80
