{
	"asset":{
		"generator":"Khronos glTF Blender I/O v4.0.44",
		"version":"2.0"
	},
	"extensionsUsed":[
		"KHR_materials_specular",
		"KHR_materials_ior"
	],
	"scene":0,
	"scenes":[
		{
			"name":"Scene",
			"nodes":[
				0,
				1,
				2
			]
		}
	],
	"nodes":[
		{
			"mesh":0,
			"name":"Suzanne.001_Suzanne.002",
			"rotation":[
				0.7071068286895752,
				0,
				0,
				0.7071068286895752
			]
		},
		{
			"mesh":1,
			"name":"Suzanne.002_Suzanne.003",
			"rotation":[
				0.7071068286895752,
				0,
				0,
				0.7071068286895752
			]
		},
		{
			"mesh":2,
			"name":"Suzanne_Suzanne.001",
			"rotation":[
				0.7071068286895752,
				0,
				0,
				0.7071068286895752
			]
		}
	],
	"materials":[
		{
			"doubleSided":true,
			"extensions":{
				"KHR_materials_specular":{
					"specularFactor":0
				},
				"KHR_materials_ior":{
					"ior":1.4500000476837158
				}
			},
			"name":"White",
			"pbrMetallicRoughness":{
				"baseColorFactor":[
					0.800000011920929,
					0.800000011920929,
					0.800000011920929,
					1
				],
				"metallicFactor":0
			}
		},
		{
			"doubleSided":true,
			"extensions":{
				"KHR_materials_specular":{
					"specularFactor":0
				},
				"KHR_materials_ior":{
					"ior":1.4500000476837158
				}
			},
			"name":"Brownish",
			"pbrMetallicRoughness":{
				"baseColorFactor":[
					0.800000011920929,
					0.800000011920929,
					0.800000011920929,
					1
				],
				"metallicFactor":0
			}
		},
		{
			"doubleSided":true,
			"extensions":{
				"KHR_materials_specular":{
					"specularFactor":0
				},
				"KHR_materials_ior":{
					"ior":1.4500000476837158
				}
			},
			"name":"Brown",
			"pbrMetallicRoughness":{
				"baseColorFactor":[
					0.800000011920929,
					0.800000011920929,
					0.800000011920929,
					1
				],
				"metallicFactor":0
			}
		}
	],
	"meshes":[
		{
			"name":"Suzanne.001_Suzanne.002",
			"primitives":[
				{
					"attributes":{
						"POSITION":0,
						"NORMAL":1
					},
					"indices":2,
					"material":0
				}
			]
		},
		{
			"name":"Suzanne.002_Suzanne.003",
			"primitives":[
				{
					"attributes":{
						"POSITION":3,
						"NORMAL":4
					},
					"indices":5,
					"material":1
				}
			]
		},
		{
			"name":"Suzanne_Suzanne.001",
			"primitives":[
				{
					"attributes":{
						"POSITION":6,
						"NORMAL":7
					},
					"indices":8,
					"material":2
				}
			]
		}
	],
	"accessors":[
		{
			"bufferView":0,
			"componentType":5126,
			"count":48,
			"max":[
				0.4765619933605194,
				0.828125,
				-0.1171879991889
			],
			"min":[
				-0.4765619933605194,
				0.7734379768371582,
				-0.375
			],
			"type":"VEC3"
		},
		{
			"bufferView":1,
			"componentType":5126,
			"count":48,
			"type":"VEC3"
		},
		{
			"bufferView":2,
			"componentType":5123,
			"count":48,
			"type":"SCALAR"
		},
		{
			"bufferView":3,
			"componentType":5126,
			"count":292,
			"max":[
				0.3671880066394806,
				0.75,
				0.984375
			],
			"min":[
				-0.3671880066394806,
				0.2578119933605194,
				0.28125
			],
			"type":"VEC3"
		},
		{
			"bufferView":4,
			"componentType":5126,
			"count":292,
			"type":"VEC3"
		},
		{
			"bufferView":5,
			"componentType":5123,
			"count":438,
			"type":"SCALAR"
		},
		{
			"bufferView":6,
			"componentType":5126,
			"count":1626,
			"max":[
				1.3671879768371582,
				0.8515620231628418,
				0.484375
			],
			"min":[
				-1.3671879768371582,
				-0.8515620231628418,
				-0.984375
			],
			"type":"VEC3"
		},
		{
			"bufferView":7,
			"componentType":5126,
			"count":1626,
			"type":"VEC3"
		},
		{
			"bufferView":8,
			"componentType":5123,
			"count":2418,
			"type":"SCALAR"
		}
	],
	"bufferViews":[
		{
			"buffer":0,
			"byteLength":576,
			"byteOffset":0,
			"target":34962
		},
		{
			"buffer":0,
			"byteLength":576,
			"byteOffset":576,
			"target":34962
		},
		{
			"buffer":0,
			"byteLength":96,
			"byteOffset":1152,
			"target":34963
		},
		{
			"buffer":0,
			"byteLength":3504,
			"byteOffset":1248,
			"target":34962
		},
		{
			"buffer":0,
			"byteLength":3504,
			"byteOffset":4752,
			"target":34962
		},
		{
			"buffer":0,
			"byteLength":876,
			"byteOffset":8256,
			"target":34963
		},
		{
			"buffer":0,
			"byteLength":19512,
			"byteOffset":9132,
			"target":34962
		},
		{
			"buffer":0,
			"byteLength":19512,
			"byteOffset":28644,
			"target":34962
		},
		{
			"buffer":0,
			"byteLength":4836,
			"byteOffset":48156,
			"target":34963
		}
	],
	"buffers":[
		{
			"byteLength":52992,
			"uri":"suzanne.bin"
		}
	]
}
